<svg width="112" height="192" viewBox="0 0 112 192" fill="none" xmlns="http://www.w3.org/2000/svg">
<g id="Frame" clip-path="url(#clip0_1_2053)">
<path id="Vector" d="M47.9168 191.995C68.6802 191.995 85.5123 190.107 85.5123 187.777C85.5123 185.447 68.6802 183.559 47.9168 183.559C27.1534 183.559 10.3213 185.447 10.3213 187.777C10.3213 190.107 27.1534 191.995 47.9168 191.995Z" fill="#B4CFD6"/>
<path id="Vector_2" d="M66.9427 67.2361C66.6151 65.3399 65.6275 63.6206 64.1545 62.3823C62.6815 61.144 60.818 60.4664 58.8935 60.4692H41.2463C39.2477 60.4729 37.32 61.2107 35.8297 62.5424C34.3395 63.8741 33.3905 65.7069 33.1631 67.6924C32.4106 74.2213 31.294 83.8667 30.4784 90.9199C30.3462 92.0609 30.457 93.2169 30.8034 94.312C31.1498 95.407 31.7241 96.4164 32.4885 97.2738C33.2529 98.1311 34.19 98.8171 35.2384 99.2865C36.2868 99.7559 37.4227 99.9982 38.5714 99.9974H62.9521C64.1396 99.9978 65.3129 99.7385 66.3897 99.2379C67.4666 98.7372 68.4209 98.0072 69.1859 97.0989C69.9508 96.1907 70.5079 95.1262 70.8182 93.98C71.1285 92.8338 71.1843 91.6337 70.9819 90.4636C69.7245 83.2842 68.0496 73.6243 66.9427 67.2361Z" fill="#FCC458"/>
<path id="Vector_3" d="M69.7244 68.4303C69.3774 66.5595 68.3863 64.8691 66.9231 63.6526C65.4599 62.4361 63.6169 61.7701 61.714 61.7703H43.9066C41.9195 61.7706 40.0011 62.4972 38.5124 63.8132C37.0237 65.1292 36.0673 66.9439 35.8234 68.9157C35.0952 74.8039 34.0563 83.1872 33.2698 89.5608C33.1273 90.7062 33.23 91.8688 33.5712 92.9714C33.9123 94.0741 34.4841 95.0916 35.2485 95.9564C36.0129 96.8213 36.9525 97.5137 38.0049 97.9878C39.0574 98.4619 40.1987 98.7068 41.353 98.7062H65.5444C66.7401 98.7063 67.9212 98.4432 69.0038 97.9356C70.0863 97.428 71.0439 96.6884 71.8085 95.7692C72.573 94.8499 73.1258 93.7737 73.4276 92.6169C73.7294 91.46 73.7729 90.2509 73.5548 89.0754L69.7244 68.4303Z" fill="#F8A848"/>
<path id="Vector_4" d="M32.7894 83.2844L30.7649 83.1582C30.7649 83.1582 30.362 89.6192 30.1629 92.7453C30.1376 93.1826 30.2862 93.6122 30.5763 93.9404C30.8664 94.2687 31.2745 94.469 31.7116 94.4977H32.0854L32.7894 83.2844Z" fill="#F8A848"/>
<path id="Vector_5" d="M15.9043 120.109L2.57788 137.652C6.59765 138.395 11.0689 136.953 16.2101 132.312L18.0501 124.837C17.5444 123.174 16.823 121.584 15.9043 120.109Z" fill="#CB4143"/>
<path id="Vector_6" d="M2.57797 137.652L15.8947 120.133C15.2622 119.111 14.4762 118.193 13.5644 117.41L-0.0290527 136.87C0.807009 137.23 1.6818 137.492 2.57797 137.652Z" fill="#F9E4E4"/>
<path id="Vector_7" d="M52.9463 115.56C52.9463 115.56 47.1206 142.419 42.5813 145.579C37.7266 148.977 14.5983 132.205 14.5983 132.205C13.9138 130.22 15.9819 124.487 17.4578 123.909C17.4578 123.909 32.8718 129.919 33.0951 128.72C33.5174 126.458 34.4641 109.919 34.4641 109.919L52.9463 115.56Z" fill="#FDA092"/>
<path id="Vector_8" d="M34.27 113.041L34.4642 109.919L52.9464 115.56C52.9464 115.56 52.524 117.502 51.8201 120.375C44.2272 119.497 37.479 115.327 34.27 113.041Z" fill="#EF7D78"/>
<path id="Vector_9" d="M53.6162 184.122L75.5987 185.151C73.9286 181.418 70.205 178.554 63.4617 176.962L56.2572 179.69C55.187 181.044 54.3006 182.535 53.6211 184.122H53.6162Z" fill="#CB4143"/>
<path id="Vector_10" d="M75.5987 185.151L53.6163 184.122C53.1329 185.223 52.8218 186.392 52.6938 187.588L76.4192 187.723C76.2445 186.837 75.9692 185.974 75.5987 185.151Z" fill="#F9E4E4"/>
<path id="Vector_11" d="M55.7671 114.711C57.4807 136.447 57.6137 158.279 56.1652 180.034C58.4955 180.316 62.5735 180.063 65.5349 178.068C69.4815 155.526 72.0883 132.77 73.3414 109.919L55.7671 114.711Z" fill="#FDA092"/>
<path id="Vector_12" d="M73.0259 114.526L73.3414 109.919L55.7671 114.711L56.17 120.497C62.4813 120.094 68.6323 117.201 73.0259 114.526Z" fill="#EF7D78"/>
<path id="Vector_13" d="M41.4648 90.8909C36.8187 95.5898 34.6681 102.08 33.7554 111.279C39.1976 114.915 45.5913 117.181 53.3202 117.706L54.6261 113.264L55.0728 117.58C61.4325 116.939 68.9769 115.055 74.8366 111.686C73.8572 104.503 71.6985 97.5311 68.4477 91.0511L41.4648 90.8957V90.8909Z" fill="#7396DD"/>
<path id="Vector_14" d="M38.5908 94.5316C39.4106 93.215 40.3746 91.9939 41.4649 90.8909L68.4478 91.0462L69.2925 92.8568C67.7748 93.5559 66.1862 94.0897 64.5542 94.449C58.2042 95.7597 47.8586 96.7208 38.5908 94.5316Z" fill="#6277C5"/>
<path id="Vector_15" d="M59.2963 116.992C57.8398 117.259 56.4368 117.453 55.0726 117.589L54.626 113.274V113.099L56.0436 108.541L66.2386 106.929L59.2963 116.992Z" fill="#6277C5"/>
<path id="Vector_16" d="M42.5813 45.2416C42.5813 45.2416 51.3781 53.5715 53.9075 53.2462C56.4368 52.921 65.894 45.261 65.894 45.261C65.894 45.261 74.9142 84.8911 73.1033 88.556C71.4187 91.954 66.7921 93.0996 65.894 93.2889C64.9958 93.4782 45.0475 95.0316 41.2899 92.852C37.9886 90.9103 35.8719 89.7211 35.9059 85.9978C35.9399 82.2746 42.5813 45.2222 42.5813 45.2222V45.2416Z" fill="#B0AB1E"/>
<path id="Vector_17" d="M37.6245 73.9543C37.9838 78.3232 39.9111 83.624 43.6202 86.5754C49.4459 91.216 63.821 92.1189 73.3315 86.0269C73.3752 87.2647 73.3072 88.1433 73.1033 88.5608C71.4187 91.9587 66.7921 93.1043 65.894 93.2937C64.9958 93.483 45.0475 95.0363 41.2899 92.8568C37.9886 90.9151 35.8719 89.7258 35.9059 86.0026C35.9059 84.7745 36.6536 79.9154 37.6245 73.9592V73.9543Z" fill="#9FA317"/>
<path id="Vector_18" d="M49.2616 46.8096C49.2616 46.8096 49.9801 51.7415 47.8926 52.8871C47.8926 52.8871 49.5286 59.4743 54.2378 59.3432C58.1216 59.2364 60.0101 52.8531 60.0101 52.8531C60.0101 52.8531 57.8012 52.7657 58.2333 47.1008L49.2616 46.8096Z" fill="#FDA092"/>
<path id="Vector_19" d="M49.145 50.926C51.8783 52.6298 57.1506 53.7657 59.9469 53.0473C59.9858 52.9211 60.01 52.8531 60.01 52.8531C60.01 52.8531 57.8011 52.7657 58.2332 47.1008L49.2615 46.8096C49.4477 48.1789 49.4084 49.5694 49.145 50.926Z" fill="#EF7D78"/>
<path id="Vector_20" d="M64.5542 46.8095C76.9922 38.2466 87.3426 26.3003 96.6298 12.6162L101.412 17.8685C91.9947 34.705 80.8091 50.4896 68.0448 64.9547L64.5542 46.8289V46.8095Z" fill="#FDA092"/>
<path id="Vector_21" d="M96.6978 13.5724C96.6978 13.5724 94.4209 4.67946 95.5326 3.93676C96.6444 3.19406 98.6203 8.96576 98.6203 8.96576C98.6203 8.96576 103.999 0.927129 105.417 1.7475C106.835 2.56786 103.533 8.24248 103.533 8.24248C103.533 8.24248 109.228 4.24258 110.296 5.02411C111.364 5.80565 105.815 10.9269 105.815 10.9269C105.815 10.9269 111.417 9.36381 111.685 10.2716C111.952 11.1793 106.689 14.0821 106.689 14.0821C106.689 14.0821 112.223 14.2569 112.005 15.1986C111.786 16.1403 101.057 18.0481 101.057 18.0481L97.1978 14.0918" fill="#FDA092"/>
<path id="Vector_22" d="M44.329 48.9307C34.8379 39.9212 25.2109 26.9895 15.8023 11.7278L10.5203 16.4801C18.1471 34.2078 28.0849 50.1249 39.1878 65.9934L44.329 48.9307Z" fill="#FDA092"/>
<path id="Vector_23" d="M15.6471 12.6697C15.6471 12.6697 18.7929 4.04853 17.7637 3.18933C16.7345 2.33013 14.1906 7.88824 14.1906 7.88824C14.1906 7.88824 9.63197 -0.645527 8.15126 0.0292137C6.67055 0.703954 9.37466 6.68924 9.37466 6.68924C9.37466 6.68924 4.10721 2.14566 2.96633 2.80584C1.82546 3.46602 6.85016 9.11636 6.85016 9.11636C6.85016 9.11636 1.42251 7.00476 1.07297 7.88338C0.723421 8.762 5.66559 12.1745 5.66559 12.1745C5.66559 12.1745 0.140855 11.7959 0.262225 12.7522C0.383594 13.7085 10.8748 16.6744 10.8748 16.6744L15.1033 13.1211" fill="#FDA092"/>
<path id="Vector_24" d="M48.2663 49.1347L45.9409 48.29C42.1639 62.5567 38.1732 76.0223 33.2068 89.4395C33.3427 90.8375 33.7311 91.9491 34.7603 92.3035C39.7171 80.0222 44.5233 64.6877 48.2663 49.1347Z" fill="#FFD983"/>
<path id="Vector_25" d="M59.238 49.1347L61.5683 48.29C65.3454 62.5567 68.7389 74.503 73.7053 87.9152C73.4237 89.2113 72.7344 90.0414 72.1275 90.2404C67.1465 77.9446 62.9859 64.6877 59.238 49.1347Z" fill="#FFD983"/>
<path id="Vector_26" d="M49.2226 79.0757C48.6158 68.5226 48.9459 59.8238 49.2566 49.9502C49.2606 49.7819 49.1981 49.6188 49.0827 49.4962C48.9673 49.3735 48.8083 49.3012 48.6401 49.2949C48.5564 49.2917 48.4729 49.3051 48.3944 49.3345C48.316 49.3638 48.2442 49.4085 48.1832 49.4659C48.1222 49.5232 48.0732 49.5922 48.0391 49.6687C48.005 49.7452 47.9865 49.8277 47.9847 49.9114C47.6739 59.8189 47.3438 68.5517 47.9507 79.1437C47.9603 79.3123 48.0366 79.4702 48.1627 79.5827C48.2888 79.6951 48.4544 79.7528 48.6231 79.7432C48.7917 79.7335 48.9497 79.6573 49.0621 79.5312C49.1745 79.4051 49.2323 79.2395 49.2226 79.0709V79.0757Z" fill="#363E77"/>
<path id="Vector_27" d="M61.981 78.3039C61.6994 69.1925 60.879 59.8141 59.7381 50.2755C59.7129 50.1126 59.6254 49.9659 59.4942 49.8662C59.3629 49.7666 59.198 49.7218 59.0343 49.7413C58.8706 49.7608 58.7209 49.8431 58.6167 49.9708C58.5126 50.0986 58.4621 50.2618 58.4759 50.426C59.6119 59.9258 60.4178 69.2702 60.7139 78.3428C60.7094 78.4306 60.7232 78.5183 60.7543 78.6005C60.7854 78.6827 60.8333 78.7575 60.8948 78.8203C60.9563 78.8831 61.0301 78.9325 61.1117 78.9653C61.1932 78.9981 61.2807 79.0136 61.3686 79.0109C61.4564 79.0082 61.5428 78.9874 61.6221 78.9496C61.7015 78.9119 61.7722 78.8581 61.8298 78.7917C61.8873 78.7252 61.9305 78.6476 61.9565 78.5637C61.9825 78.4797 61.9909 78.3913 61.981 78.3039Z" fill="#363E77"/>
<path id="Vector_28" d="M47.0284 80.0561C47.0232 79.4432 47.2608 78.8531 47.6892 78.4148C48.1176 77.9764 48.7021 77.7253 49.315 77.7164L60.1897 77.5999C60.4938 77.5954 60.7957 77.6511 61.0782 77.7637C61.3606 77.8764 61.618 78.0437 61.8355 78.2562C62.053 78.4687 62.2263 78.7222 62.3454 79.0019C62.4646 79.2816 62.5272 79.5822 62.5297 79.8862C62.5297 81.7842 62.5783 84.4589 62.6026 86.3569C62.6078 86.9707 62.3695 87.5614 61.9401 88C61.5106 88.4385 60.9249 88.689 60.3111 88.6967L49.4364 88.818C49.1325 88.8212 48.831 88.7645 48.5491 88.651C48.2672 88.5375 48.0104 88.3696 47.7935 88.1568C47.5766 87.9439 47.4038 87.6904 47.285 87.4107C47.1662 87.131 47.1038 86.8307 47.1012 86.5268C47.0769 84.6288 47.0478 81.9541 47.0284 80.0561Z" fill="#C84A77"/>
<path id="Vector_29" d="M48.1158 80.0319C48.1111 79.7282 48.167 79.4267 48.2804 79.1449C48.3938 78.8632 48.5623 78.6069 48.776 78.3911C48.9878 78.1735 49.2405 77.9997 49.5196 77.8797C49.7987 77.7598 50.0986 77.696 50.4024 77.6921L61.2771 77.5756C61.581 77.5718 61.8826 77.6279 62.1648 77.7408C62.4469 77.8537 62.7041 78.0211 62.9214 78.2335C63.1388 78.4458 63.3121 78.699 63.4315 78.9784C63.5509 79.2579 63.6139 79.5581 63.6171 79.862C63.6171 81.76 63.6656 84.4347 63.6899 86.3327C63.6951 86.9464 63.4569 87.5372 63.0274 87.9757C62.598 88.4142 62.0122 88.6647 61.3985 88.6724L50.5286 88.7938C50.2243 88.7976 49.9222 88.7413 49.6398 88.6282C49.3573 88.515 49.1 88.3471 48.8826 88.1342C48.6651 87.9213 48.4919 87.6676 48.3728 87.3876C48.2537 87.1076 48.1911 86.8068 48.1886 86.5026C48.1643 84.6046 48.1352 81.9299 48.1158 80.0319Z" fill="#DA669A"/>
<path id="Vector_30" d="M58.9468 85.226C59.4812 84.5381 59.7668 83.6896 59.7571 82.8186C59.7474 81.9477 59.443 81.1057 58.8934 80.43V79.5222H56.7622C55.4077 79.7067 54.3639 81.129 54.3833 82.8377C54.4027 84.5464 55.4757 85.9492 56.835 86.1046L58.9614 86.0803V85.1726L58.9468 85.226Z" fill="#C84A77"/>
<path id="Vector_31" d="M58.6945 79.5126C58.0395 79.5194 57.4012 79.7203 56.8604 80.0899C56.3196 80.4594 55.9006 80.9811 55.6564 81.5888C55.4122 82.1966 55.3538 82.8631 55.4885 83.5041C55.6233 84.145 55.9451 84.7316 56.4134 85.1896C56.8816 85.6476 57.4752 85.9565 58.1191 86.077C58.7629 86.1976 59.428 86.1246 60.0303 85.8671C60.6326 85.6096 61.145 85.1793 61.5026 84.6305C61.8603 84.0818 62.0471 83.4393 62.0394 82.7844C62.0292 81.9072 61.6712 81.0699 61.044 80.4565C60.4168 79.843 59.5718 79.5036 58.6945 79.5126Z" fill="#F599C8"/>
<path id="Vector_32" d="M58.6993 80.2018C58.1823 80.2085 57.6788 80.3683 57.2525 80.6609C56.8261 80.9536 56.4961 81.3659 56.304 81.846C56.1119 82.326 56.0663 82.8522 56.1731 83.3581C56.2798 83.8641 56.5341 84.327 56.9038 84.6885C57.2735 85.0501 57.742 85.294 58.2502 85.3894C58.7585 85.4849 59.2836 85.4277 59.7593 85.225C60.235 85.0223 60.64 84.6832 60.9231 84.2505C61.2062 83.8178 61.3548 83.311 61.35 82.7939C61.3411 82.0991 61.0571 81.4362 60.5603 80.9503C60.0634 80.4645 59.3943 80.1953 58.6993 80.2018Z" fill="#363E77"/>
<path id="Vector_33" d="M59.7382 81.0806C59.581 81.0944 59.4347 81.1666 59.3281 81.2829C59.2215 81.3993 59.1624 81.5514 59.1624 81.7092C59.1624 81.867 59.2215 82.019 59.3281 82.1354C59.4347 82.2518 59.581 82.324 59.7382 82.3378C59.8254 82.3455 59.9132 82.3349 59.9961 82.3068C60.0791 82.2787 60.1552 82.2337 60.2198 82.1745C60.2843 82.1154 60.3359 82.0435 60.3711 81.9634C60.4064 81.8833 60.4246 81.7967 60.4246 81.7092C60.4246 81.6216 60.4064 81.5351 60.3711 81.455C60.3359 81.3748 60.2843 81.3029 60.2198 81.2438C60.1552 81.1847 60.0791 81.1397 59.9961 81.1115C59.9132 81.0834 59.8254 81.0729 59.7382 81.0806Z" fill="white"/>
<path id="Vector_34" d="M49.7471 79.0853C49.7465 79.0588 49.7512 79.0324 49.7609 79.0077C49.7706 78.983 49.7851 78.9604 49.8037 78.9415C49.8222 78.9225 49.8444 78.9074 49.8689 78.8971C49.8933 78.8867 49.9196 78.8814 49.9462 78.8814L52.8979 78.8475C52.9244 78.8468 52.9508 78.8515 52.9755 78.8612C53.0003 78.8709 53.0228 78.8855 53.0418 78.904C53.0608 78.9226 53.0759 78.9447 53.0862 78.9692C53.0965 78.9937 53.1018 79.0199 53.1018 79.0465C53.1018 79.3232 53.1018 79.8232 53.1018 80.1047C53.1018 80.158 53.081 80.2091 53.0438 80.2472C53.0066 80.2853 52.956 80.3073 52.9027 80.3086L49.951 80.3377C49.8982 80.3377 49.8476 80.3168 49.8103 80.2794C49.773 80.2421 49.752 80.1915 49.752 80.1387C49.7568 79.8863 49.752 79.362 49.7471 79.0853Z" fill="#C84A77"/>
<path id="Vector_35" d="M50.0237 79.2942C50.0248 79.2542 50.0409 79.216 50.0688 79.1873C50.0966 79.1585 50.1342 79.1413 50.1742 79.1389L52.6647 79.1146C52.6849 79.1139 52.7049 79.1173 52.7238 79.1246C52.7426 79.1319 52.7598 79.1429 52.7743 79.1569C52.7887 79.1709 52.8003 79.1877 52.8081 79.2063C52.816 79.2249 52.82 79.2449 52.82 79.2651C52.82 79.4204 52.82 79.6582 52.82 79.8184C52.82 79.8583 52.8042 79.8966 52.776 79.9248C52.7477 79.9531 52.7094 79.9689 52.6695 79.9689L50.179 79.998C50.1391 79.998 50.1008 79.9822 50.0726 79.954C50.0444 79.9257 50.0285 79.8875 50.0285 79.8476C50.0285 79.6922 50.0285 79.4495 50.0237 79.2942Z" fill="#363E77"/>
<path id="Vector_36" d="M50.9171 79.4009C50.915 79.3832 50.9169 79.3652 50.9228 79.3484C50.9287 79.3316 50.9384 79.3163 50.9511 79.3038C50.9639 79.2913 50.9791 79.2814 50.9957 79.2747C51.0124 79.268 51.0302 79.2647 51.0482 79.265H52.4367C52.4543 79.2643 52.4718 79.2672 52.4883 79.2735C52.5048 79.2798 52.5198 79.2894 52.5325 79.3016C52.5452 79.3138 52.5553 79.3285 52.5622 79.3447C52.5691 79.361 52.5726 79.3784 52.5726 79.396C52.5726 79.4308 52.5588 79.4641 52.5342 79.4887C52.5096 79.5133 52.4763 79.5271 52.4415 79.5271H51.0482C51.0135 79.5269 50.9803 79.5129 50.9559 79.4883C50.9423 79.4762 50.9318 79.4612 50.925 79.4443C50.9183 79.4275 50.9156 79.4093 50.9171 79.3912V79.4009Z" fill="white"/>
<path id="Vector_37" d="M54.6212 36.7612C61.8337 36.7612 67.6805 31.9777 67.6805 26.077C67.6805 20.1763 61.8337 15.3928 54.6212 15.3928C47.4087 15.3928 41.5618 20.1763 41.5618 26.077C41.5618 31.9777 47.4087 36.7612 54.6212 36.7612Z" fill="#E6B489"/>
<path id="Vector_38" d="M45.7029 18.2812C48.2782 16.3598 51.4129 15.3366 54.626 15.3687C60.4129 15.3687 65.3065 18.456 67.0397 22.7325C59.6701 15.4269 50.3489 16.9706 45.7029 18.2812Z" fill="#F3CDA1"/>
<path id="Vector_39" d="M54.9805 44.8046C66.8208 44.8046 76.4193 39.4604 76.4193 32.868C76.4193 26.2756 66.8208 20.9314 54.9805 20.9314C43.1402 20.9314 33.5417 26.2756 33.5417 32.868C33.5417 39.4604 43.1402 44.8046 54.9805 44.8046Z" fill="#C68F6A"/>
<path id="Vector_40" d="M54.6165 40.2271C62.998 40.2271 69.7926 37.1909 69.7926 33.4457C69.7926 29.7004 62.998 26.6643 54.6165 26.6643C46.235 26.6643 39.4404 29.7004 39.4404 33.4457C39.4404 37.1909 46.235 40.2271 54.6165 40.2271Z" fill="#AE654F"/>
<path id="Vector_41" d="M54.2377 21.7471C60.6703 21.7471 65.8892 27.9945 65.8892 35.6885C65.8892 43.3824 61.1218 49.7221 54.2377 49.625C47.3536 49.5279 42.5862 43.3776 42.5862 35.6885C42.5862 27.9993 47.8051 21.7471 54.2377 21.7471Z" fill="#FDA092"/>
<path id="Vector_42" d="M48.2663 26.1061C45.9214 28.3342 44.766 37.8679 46.1593 43.193C46.7758 45.5376 44.3048 45.2561 44.2174 47.2706C44.0086 51.154 45.1398 53.5811 45.1398 53.5811C45.1398 53.5811 37.4886 50.7705 37.3721 46.625C37.2896 44.0474 39.0907 42.9018 39.683 40.7756C40.2753 38.6495 39.0907 36.7515 39.683 34.6107C40.2753 32.47 41.4987 30.4749 43.2998 28.3002C44.13 27.2954 48.3003 26.0867 48.3003 26.0867L48.2663 26.1061Z" fill="#8D4A54"/>
<path id="Vector_43" d="M62.2141 26.6694C62.4909 26.6985 64.3745 36.1011 64.0493 40.9457C63.8988 43.1544 60.8936 45.0378 61.9665 46.9795C63.1851 49.1882 63.0831 51.5134 61.8937 54.1541C61.8937 54.1541 66.7097 54.0764 69.5934 49.0037C70.4624 47.4795 68.2584 46.1883 68.1855 44.7174C68.1176 43.3437 69.841 43.0864 69.5255 39.4894C69.2002 35.8002 66.6854 28.1111 66.6854 28.1111L62.2141 26.6548V26.6694Z" fill="#8D4A54"/>
<path id="Vector_44" d="M38.9888 32.8584C44.7902 25.3926 64.0395 23.6353 69.7973 32.8924C70.7682 30.4216 69.5837 27.7469 66.5591 24.8877L58.8934 22.2033C55.3106 20.4461 49.5091 21.3781 44.329 23.5965C40.9307 27.043 38.9888 30.1692 38.9888 32.8584Z" fill="#C68F6A"/>
<path id="Vector_45" d="M49.8295 35.8341C50.1432 35.8341 50.3975 35.4385 50.3975 34.9506C50.3975 34.4627 50.1432 34.0671 49.8295 34.0671C49.5158 34.0671 49.2615 34.4627 49.2615 34.9506C49.2615 35.4385 49.5158 35.8341 49.8295 35.8341Z" fill="#30385B"/>
<path id="Vector_46" d="M59.4227 35.8341C59.7365 35.8341 59.9908 35.4385 59.9908 34.9506C59.9908 34.4627 59.7365 34.0671 59.4227 34.0671C59.109 34.0671 58.8547 34.4627 58.8547 34.9506C58.8547 35.4385 59.109 35.8341 59.4227 35.8341Z" fill="#30385B"/>
<path id="Vector_47" d="M57.7915 29.5575L58.0731 28.4362C58.4897 28.2308 58.9489 28.1267 59.4134 28.1326C59.8779 28.1384 60.3344 28.2539 60.7457 28.4697C61.157 28.6855 61.5115 28.9955 61.7802 29.3744C62.0489 29.7532 62.2242 30.1902 62.2919 30.6497C61.7272 30.0528 61.0018 29.6321 60.2032 29.4383C59.4046 29.2445 58.5671 29.2859 57.7915 29.5575Z" fill="#8D4A54"/>
<path id="Vector_48" d="M52.0968 29.5575L51.8152 28.4362C51.3986 28.2308 50.9394 28.1267 50.4749 28.1326C50.0104 28.1384 49.5539 28.2539 49.1426 28.4697C48.7313 28.6855 48.3768 28.9955 48.1081 29.3744C47.8394 29.7532 47.6641 30.1902 47.5964 30.6497C48.1612 30.0528 48.8866 29.6321 49.6851 29.4383C50.4837 29.2445 51.3213 29.2859 52.0968 29.5575Z" fill="#8D4A54"/>
<path id="Vector_49" d="M56.306 32.572C55.5098 35.6108 56.4176 36.8923 56.5342 37.6738C56.5362 37.9563 56.467 38.2347 56.3329 38.4833C56.1989 38.7319 56.0042 38.9427 55.7671 39.0961" stroke="#D04949" stroke-width="1.27" stroke-linecap="round" stroke-linejoin="round"/>
<path id="Vector_50" d="M51.2957 40.2319C53.4842 40.6425 55.712 40.8054 57.937 40.7174C57.937 40.7174 57.806 45.5473 54.1406 45.1202C50.917 44.727 51.2957 40.2319 51.2957 40.2319Z" fill="white"/>
</g>
<defs>
<clipPath id="clip0_1_2053">
<rect width="112" height="192" fill="white"/>
</clipPath>
</defs>
</svg>
