<svg width="81" height="187" viewBox="0 0 81 187" fill="none" xmlns="http://www.w3.org/2000/svg">
<g id="Frame" clip-path="url(#clip0_1_2104)">
<path id="Vector" d="M42.0108 186.995C63.544 186.995 81.0001 185.179 81.0001 182.938C81.0001 180.697 63.544 178.88 42.0108 178.88C20.4776 178.88 3.02148 180.697 3.02148 182.938C3.02148 185.179 20.4776 186.995 42.0108 186.995Z" fill="#B4CFD6"/>
<path id="Vector_2" d="M66.8987 169.121C66.8987 169.121 59.2032 175.943 65.5951 183.647L81 168.196L74.1612 163.107L66.8987 169.121Z" fill="#2B2738"/>
<path id="Vector_3" d="M63.9517 181.075C64.3798 182.003 64.9327 182.869 65.595 183.647L80.9999 168.196L78.998 166.707L63.9517 181.075Z" fill="#F0EDF4"/>
<path id="Vector_4" d="M22.5696 123.431L19.7297 174.411L29.5062 176.372L37.2482 126.106L22.5509 123.412L22.5696 123.431Z" fill="#FDA092"/>
<path id="Vector_5" d="M22.2065 129.94C26.727 131.529 31.4123 132.598 36.1729 133.129L37.2529 126.125L22.5557 123.431L22.2065 129.94Z" fill="#EF7D78"/>
<path id="Vector_6" d="M44.5991 124.733C44.5991 124.733 47.2481 138.984 50.1856 145.526C53.6121 153.123 66.2004 170.017 66.2004 170.017C69.4592 169.438 72.6668 165.974 74.7058 163.746C74.7058 163.746 64.8223 148.44 61.7172 141.8C59.0822 136.197 58.1465 123.533 58.1465 123.533L44.5991 124.733Z" fill="#FDA092"/>
<path id="Vector_7" d="M46.4613 133.437C50.7268 133.207 54.9543 132.508 59.0682 131.355C58.4072 127.152 58.1371 123.548 58.1371 123.548L44.5991 124.734C44.5991 124.734 45.3393 128.717 46.4613 133.437Z" fill="#EF7D78"/>
<path id="Vector_8" d="M20.5957 173.576C20.5957 173.576 10.5493 171.442 8.18433 181.182L29.739 184.385V175.845L20.5957 173.576Z" fill="#2B2738"/>
<path id="Vector_9" d="M9.26904 178.324C8.78073 179.223 8.41585 180.185 8.18433 181.182L29.739 184.385V181.882L9.26904 178.324Z" fill="#F0EDF4"/>
<path id="Vector_10" d="M26.1823 40.1896C23.6218 40.1896 21.5269 37.9482 21.5269 35.212C21.5269 32.4757 23.6171 30.2297 26.1823 30.2297H71.07V40.1896H26.1823Z" fill="#593A58"/>
<path id="Vector_11" d="M71.5029 40.1896C74.0817 40.1896 76.1723 37.959 76.1723 35.2073C76.1723 32.4557 74.0817 30.2251 71.5029 30.2251C68.9241 30.2251 66.8335 32.4557 66.8335 35.2073C66.8335 37.959 68.9241 40.1896 71.5029 40.1896Z" fill="#472F48"/>
<path id="Vector_12" d="M77.1453 46.5025C77.1453 44.829 76.4828 43.2239 75.3034 42.0401C74.124 40.8564 72.5243 40.1907 70.8558 40.1895H47.113V66.6042H73.3464C74.3552 66.6042 75.3226 66.2023 76.0359 65.4869C76.7492 64.7715 77.1499 63.8011 77.1499 62.7893V46.5025H77.1453Z" fill="#89A7E2"/>
<path id="Vector_13" d="M74.6638 48.2582C74.6638 46.4006 73.9281 44.6191 72.6185 43.3056C71.3089 41.9921 69.5327 41.2542 67.6807 41.2542H39.478C37.626 41.2542 35.8498 41.9921 34.5402 43.3056C33.2306 44.6191 32.4949 46.4006 32.4949 48.2582V90.2268C32.4949 92.0844 33.2306 93.8659 34.5402 95.1794C35.8498 96.4929 37.626 97.2309 39.478 97.2309H67.6947C69.5467 97.2309 71.3229 96.4929 72.6325 95.1794C73.9421 93.8659 74.6778 92.0844 74.6778 90.2268V48.2582H74.6638Z" fill="#7396DD"/>
<path id="Vector_14" d="M66.014 48.2582C66.014 46.4006 65.2783 44.6191 63.9687 43.3056C62.6591 41.9921 60.8829 41.2542 59.0309 41.2542H30.8049C28.9529 41.2542 27.1767 41.9921 25.8671 43.3056C24.5575 44.6191 23.8218 46.4006 23.8218 48.2582V90.2268C23.8218 92.0844 24.5575 93.8659 25.8671 95.1794C27.1767 96.4929 28.9529 97.2309 30.8049 97.2309H59.0309C60.8829 97.2309 62.6591 96.4929 63.9687 95.1794C65.2783 93.8659 66.014 92.0844 66.014 90.2268V48.2582Z" fill="#6277C5"/>
<path id="Vector_15" d="M76.1675 83.3301H67.4106V93.6588H73.5558C74.2485 93.6588 74.9128 93.3828 75.4026 92.8916C75.8924 92.4003 76.1675 91.734 76.1675 91.0393V83.3301Z" fill="#6277C5"/>
<path id="Vector_16" d="M27.2017 89.6712L22.9327 93.5048L19.7297 126.858C19.7297 126.858 31.7501 131.224 40.2137 129.585L41.4986 117.183L43.668 129.347C43.668 129.347 58.854 128.581 64.5477 124.678L60.0133 89.2183L27.1924 89.6852L27.2017 89.6712Z" fill="#E4B586"/>
<path id="Vector_17" d="M61.2377 98.7298L60.0226 89.2229L27.2017 89.6898L22.9327 93.5234L22.5696 97.2869C33.0816 101.723 42.0666 101.578 61.2377 98.7485V98.7298Z" fill="#CF9168"/>
<path id="Vector_18" d="M40.3719 128.04L41.466 117.51L41.4334 117.081L40.6187 111.533L34.3059 110.996L40.3719 128.04Z" fill="#CF9168"/>
<path id="Vector_19" d="M30.0368 46.199L29.1849 40.04C26.5674 41.2835 24.2752 43.1221 22.4904 45.4098C20.2232 48.3329 16.1497 56.1728 16.1497 56.1728L25.9261 59.5441L30.0368 46.199Z" fill="#E55950"/>
<path id="Vector_20" d="M37.8209 36.4492C37.8209 36.4492 26.2288 40.1847 25.1674 43.2759C23.2214 48.9539 21.6758 96.0401 21.6758 96.0401C25.2776 97.4925 29.0574 98.4536 32.914 98.8977L35.0835 95.0642L38.4819 98.9118C46.3962 98.146 54.0916 96.549 61.3262 93.6167C61.3262 93.6167 60.5068 44.6627 55.9724 41.8891C46.2565 35.9496 37.8162 36.4679 37.8162 36.4679L37.8209 36.4492Z" fill="#E43B3F"/>
<path id="Vector_21" d="M35.3255 50.8544C35.8217 50.8544 36.224 50.4593 36.224 49.9719C36.224 49.4845 35.8217 49.0894 35.3255 49.0894C34.8293 49.0894 34.427 49.4845 34.427 49.9719C34.427 50.4593 34.8293 50.8544 35.3255 50.8544Z" fill="#FED6CE"/>
<path id="Vector_22" d="M34.0826 84.0023C34.5788 84.0023 34.9811 83.6072 34.9811 83.1198C34.9811 82.6324 34.5788 82.2373 34.0826 82.2373C33.5864 82.2373 33.1841 82.6324 33.1841 83.1198C33.1841 83.6072 33.5864 84.0023 34.0826 84.0023Z" fill="#FED6CE"/>
<path id="Vector_23" d="M34.4271 92.2765C34.9233 92.2765 35.3256 91.8814 35.3256 91.394C35.3256 90.9066 34.9233 90.5115 34.4271 90.5115C33.9308 90.5115 33.5286 90.9066 33.5286 91.394C33.5286 91.8814 33.9308 92.2765 34.4271 92.2765Z" fill="#FED6CE"/>
<path id="Vector_24" d="M66.2376 58.2415L72.4061 72.1796L64.6176 75.7096L57.262 64.391L66.2376 58.2415Z" fill="#EF7D78"/>
<path id="Vector_25" d="M54.6969 41.2494C54.6969 41.2494 57.2899 41.9031 61.3262 46.6799C63.8495 49.673 69.9248 60.9449 69.9248 60.9449L57.2527 67.6501C57.2527 67.6501 51.1122 54.0015 54.6969 41.2354V41.2494Z" fill="#E55950"/>
<path id="Vector_26" d="M56.9267 41.749C51.8058 56.6164 51.3123 70.7786 63.1464 81.0653L62.2898 84.544C44.804 69.8588 42.6904 57.5035 49.357 38.7839C51.5823 39.3116 54.9202 40.1054 56.9267 41.749Z" fill="#59649A"/>
<path id="Vector_27" d="M21.5454 84.5442C34.3153 85.6462 47.7742 85.2446 61.368 84.5442L61.6241 88.4945C47.5088 89.0128 33.738 89.293 21.5454 88.4945V84.5442Z" fill="#59649A"/>
<path id="Vector_28" d="M38.7286 86.1598C38.7292 85.9475 38.6879 85.7371 38.6072 85.5408C38.5265 85.3445 38.4079 85.1662 38.2582 85.016C38.1085 84.8659 37.9306 84.7469 37.7349 84.6659C37.5392 84.585 37.3295 84.5436 37.1178 84.5442H31.2426C31.0309 84.5436 30.8212 84.585 30.6255 84.6659C30.4298 84.7469 30.252 84.8659 30.1023 85.016C29.9526 85.1662 29.8339 85.3445 29.7532 85.5408C29.6725 85.7371 29.6312 85.9475 29.6318 86.1598V88.177C29.6312 88.3893 29.6725 88.5997 29.7532 88.796C29.8339 88.9923 29.9526 89.1706 30.1023 89.3208C30.252 89.4709 30.4298 89.5899 30.6255 89.6709C30.8212 89.7519 31.0309 89.7932 31.2426 89.7926H37.1178C37.3295 89.7932 37.5392 89.7519 37.7349 89.6709C37.9306 89.5899 38.1085 89.4709 38.2582 89.3208C38.4079 89.1706 38.5265 88.9923 38.6072 88.796C38.6879 88.5997 38.7292 88.3893 38.7286 88.177V86.1598Z" fill="#6277C5"/>
<path id="Vector_29" d="M31.3544 39.0874C25.5351 50.0044 23.226 63.1348 22.3182 80.4302L21.8992 77.2457C21.0706 61.0756 21.6758 50.1259 25.577 42.0852C27.2305 40.6286 29.2138 39.5994 31.3544 39.0874Z" fill="#59649A"/>
<path id="Vector_30" d="M26.8711 83.3301C19.0314 74.8785 9.79498 75.9151 9.79498 75.9151C7.0481 67.5779 3.78289 59.4216 0.0185547 51.4942C8.81734 46.7221 19.9206 53.9877 20.7865 54.576C21.5407 53.7448 34.4595 48.9727 48.3746 51.695L52.8206 78.7775C52.8206 78.7775 32.0666 77.3767 26.9503 83.2694L26.8711 83.3301Z" fill="#EBEBEB"/>
<path id="Vector_31" d="M40.4092 51.8911C38.7146 55.099 35.6467 61.4307 35.4465 65.4324C35.2975 68.4535 41.4381 70.1018 40.5675 72.9034C40.1438 74.2809 37.6532 76.5455 35.2277 78.5067C33.9383 78.7334 32.6682 79.0597 31.4289 79.4826C31.6663 77.5635 33.8683 74.7338 32.8255 74.2715C31.7827 73.8093 26.5686 76.7743 25.144 76.7043C24.1524 76.6529 25.1952 74.2435 24.2828 73.8419C23.3703 73.4404 20.4234 73.7953 19.5482 74.2342C18.8638 74.5797 19.4411 75.6724 19.0407 76.4802L18.5752 76.2794L18.1422 76.13C18.0771 74.6684 18.5473 73.3984 18.2912 72.0676C17.9374 70.2278 17.2577 67.2067 16.0333 65.0915C14.7019 62.8035 10.8425 60.5155 10.3164 58.3302C9.79037 56.1449 11.89 54.053 12.8723 51.9892L14.3434 52.4561L15.3536 52.867C14.8601 54.1418 13.3285 54.8375 13.4914 56.0609C13.6544 57.2843 15.2326 58.9886 16.3406 60.2633C17.4486 61.5381 19.1757 62.3459 20.1627 63.7654C21.4848 65.6658 22.2064 70.7695 24.2548 71.6613C26.3032 72.5532 30.7724 70.6107 32.467 69.1165C34.1616 67.6223 33.994 64.8861 34.5154 62.7054C35.1951 59.8571 36.0936 54.4079 36.5592 52.0265L38.1327 51.9098L40.4046 51.8538L40.4092 51.8911Z" fill="#B0A91B"/>
<path id="Vector_32" d="M48.7005 57.8352C46.303 60.1699 43.3235 63.4385 42.8114 65.3062C41.9734 68.3647 46.8616 71.2504 46.4846 74.0754C46.3495 75.0793 45.5535 76.4101 44.5851 77.6895H45.195H48.3095L48.1698 76.8723C47.8998 75.2054 46.4659 69.985 46.6847 67.683C46.857 65.8899 49.1847 65.2502 49.478 63.0556L48.6912 57.8539L48.7005 57.8352Z" fill="#B0A91B"/>
<path id="Vector_33" d="M7.35571 66.791C9.92086 67.0945 13.4636 66.6416 15.0512 67.6642C16.6387 68.6868 16.6293 71.6052 16.8761 72.9359C17.0437 73.8325 16.5316 74.6356 16.5223 75.6535C14.9081 75.2251 13.2344 75.0674 11.5689 75.1866C11.662 73.076 11.662 70.788 11.2802 70.0923C10.8985 69.3965 9.64153 69.6253 8.55216 70.0316L8.37526 69.5133L7.35571 66.791Z" fill="#B0A91B"/>
<path id="Vector_34" d="M4.59949 51.0645C4.66466 51.5314 4.19912 51.7275 4.30154 52.059C4.71122 53.3711 5.53523 57.0413 7.05756 58.9324C8.57989 60.8235 12.3741 62.4064 13.4355 63.4337C13.8359 63.8213 13.9755 64.9746 13.4355 65.1053C12.3135 65.3762 8.95698 65.1053 6.71306 65.04C5.05572 60.6974 3.22613 56.3269 1.31274 51.933C2.34854 51.4509 3.46134 51.1568 4.59949 51.0645Z" fill="#B0A91B"/>
<path id="Vector_35" d="M40.4093 51.8909C42.9251 51.8702 45.4365 52.1064 47.9045 52.596L48.7006 57.835C46.3031 60.1697 43.3236 63.4383 42.8115 65.3061C41.9735 68.3645 46.8617 71.2502 46.4846 74.0752C46.3496 75.0791 45.5535 76.4099 44.5852 77.6893L41.1914 77.8154C38.9288 78.0022 39.0732 77.9928 36.9549 78.245L35.2324 78.5392C37.6579 76.5827 40.1486 74.3367 40.5722 72.9359C41.4381 70.1342 35.2976 68.4766 35.4512 65.4648C35.6514 61.4538 38.71 55.1221 40.4139 51.9236L40.4093 51.8909Z" fill="#7999C3"/>
<path id="Vector_36" d="M4.59955 51.0645C7.39347 50.7857 10.2146 51.1039 12.8769 51.9983C11.8946 54.0622 9.79502 56.1588 10.3211 58.3394C10.8472 60.52 14.7065 62.8126 16.038 65.1006C17.2623 67.2159 17.942 70.237 18.2959 72.0767C18.5519 73.4075 18.0817 74.6776 18.1469 76.1391L17.132 75.7936L16.5547 75.6535C16.5547 74.6355 17.0761 73.8324 16.9085 72.9359C16.6618 71.6051 16.6432 68.6727 15.0836 67.6641C13.524 66.6556 9.96262 67.0945 7.38816 66.791L6.72709 65.0399C8.97101 65.1053 12.3136 65.3761 13.4495 65.1053C13.9896 64.9746 13.8499 63.8212 13.4495 63.4337C12.3881 62.4064 8.59392 60.8328 7.07159 58.9324C5.54926 57.0319 4.74387 53.3711 4.31557 52.059C4.21315 51.7275 4.67869 51.5501 4.61351 51.0645H4.59955Z" fill="#7999C3"/>
<path id="Vector_37" d="M49.4873 63.0369L51.7312 77.8155C51.7312 77.8155 50.3905 77.7128 48.3095 77.6708L48.1698 76.8536C47.8998 75.1866 46.4659 69.9663 46.6847 67.6642C46.857 65.8712 49.1847 65.2315 49.478 63.0369H49.4873Z" fill="#8F8411"/>
<path id="Vector_38" d="M36.5639 52.073C36.0984 54.4544 35.1999 59.9036 34.5202 62.7519C33.9988 64.9325 34.1617 67.6921 32.4718 69.163C30.7819 70.6339 26.3126 72.5997 24.2596 71.7078C22.2065 70.816 21.4663 65.7123 20.1674 63.8119C19.1805 62.411 17.458 61.5939 16.3453 60.3098C15.2327 59.0257 13.6591 57.3354 13.4962 56.1074C13.3333 54.8793 14.8649 54.1882 15.3584 52.9135C17.2351 53.6713 19.0448 54.5866 20.768 55.6498C25.8465 53.7422 31.1609 52.5388 36.5639 52.073Z" fill="#8F8411"/>
<path id="Vector_39" d="M19.0362 76.494C19.4365 75.6862 18.8593 74.5936 19.5436 74.2481C20.4188 73.8091 23.3471 73.4449 24.2782 73.8558C25.2093 74.2667 24.1478 76.6575 25.1394 76.7182C26.564 76.7882 31.7734 73.8185 32.8209 74.2854C33.8684 74.7523 31.671 77.5773 31.4243 79.4964C29.4876 80.1502 27.8768 81.042 26.862 82.2421C24.719 79.7545 22.0396 77.7889 19.0269 76.494H19.0362Z" fill="#8F8411"/>
<path id="Vector_40" d="M8.57056 70.0222C9.65993 69.6159 10.8983 69.3684 11.2986 70.0829C11.699 70.7973 11.6804 73.0666 11.5873 75.1772L10.3629 75.2706L8.57056 70.0222Z" fill="#8F8411"/>
<path id="Vector_41" d="M26.9085 83.3068V83.3301C19.0687 74.8785 9.83233 75.9151 9.83233 75.9151C7.08545 67.5779 3.82024 59.4216 0.0559082 51.4942C8.85469 46.7221 19.9579 53.9877 20.8238 54.576L20.8518 54.548L26.9085 83.3068Z" fill="black" fill-opacity="0.16"/>
<path id="Vector_42" d="M58.7005 63.163C58.7005 63.163 50.4324 53.474 48.4073 53.4133C45.2416 53.3059 43.3235 54.4406 43.4399 55.4585C43.6029 56.9107 47.6298 56.243 47.6298 56.243L49.3058 57.6438C49.3058 57.6438 46.047 57.4243 44.8505 58.1107C43.8636 58.6711 41.5545 61.2906 41.899 62.486C41.9819 62.7655 42.1592 63.0073 42.4004 63.17C42.6416 63.3327 42.9318 63.4062 43.2211 63.3778C43.2211 63.3778 42.7556 64.3117 43.2211 65.0121C43.7798 65.8853 45.1252 65.1289 45.1252 65.1289C45.0338 65.2177 44.9652 65.3272 44.925 65.4483C44.8848 65.5694 44.8743 65.6984 44.8944 65.8244C44.9145 65.9504 44.9646 66.0697 45.0404 66.1721C45.1163 66.2746 45.2156 66.3572 45.33 66.4129C45.9771 66.8565 47.3505 66.0301 48.0023 65.946C48.5709 65.9115 49.1338 66.0766 49.5944 66.4129C49.5944 66.4129 51.6801 69.7376 56.4938 68.8831L58.6818 63.2051L58.7005 63.163Z" fill="#FDA092"/>
<path id="Vector_43" d="M43.5005 62.9435C45.1718 60.4361 46.9362 59.8011 49.5526 60.24" stroke="#E43B3F" stroke-width="1.27" stroke-linecap="round" stroke-linejoin="round"/>
<path id="Vector_44" d="M45.2927 64.7086C46.9594 62.2011 48.5981 62.4252 50.5115 62.9435" stroke="#E43B3F" stroke-width="1.27" stroke-linecap="round" stroke-linejoin="round"/>
<path id="Vector_45" d="M57.262 62.3926C57.262 62.3926 66.9966 67.3608 71.1306 70.2045C72.7833 71.3438 74.4592 77.4234 72.22 80.6873C70.7162 82.8819 66.7079 82.5317 63.2908 80.2904C60.4324 78.4226 55.3486 67.683 55.3486 67.683L57.262 62.4113V62.3926Z" fill="#FDA092"/>
<path id="Vector_46" d="M1.81091 59.1378C1.3733 59.3199 -0.0512588 60.039 1.44314 61.4025C1.73742 61.645 2.07804 61.8245 2.44405 61.9301C1.97851 62.3084 1.36865 63.0881 2.76994 64.022C3.14908 64.2445 3.57132 64.3831 4.00828 64.4283C3.57067 64.7645 2.66752 65.6937 4.35279 66.6416C5.84718 67.4774 10.0976 66.6416 9.75775 65.2641C9.6274 64.7224 7.79781 64.4843 6.27548 64.3816C7.43934 64.1761 8.3844 63.6998 8.28198 63.0274C8.22145 62.6072 7.16001 62.299 5.98684 62.0936C6.61533 61.9255 7.05294 61.6266 7.06691 61.1877C7.08087 60.7488 6.02874 60.2865 4.87419 59.9036C5.6051 59.9036 6.17772 59.6935 6.31738 59.2312C6.60602 58.2973 1.86678 56.1868 1.86678 56.1868C1.86678 56.1868 -0.46094 56.4436 0.782062 58.3347C1.05545 58.6852 1.40813 58.9653 1.81091 59.1518V59.1378Z" fill="#FDA092"/>
<path id="Vector_47" d="M44.3989 29.3706C44.3989 29.3706 43.7239 36.0899 46.3169 38.093C42.7835 41.3383 39.0824 42.8231 35.8934 44.7376C35.8934 44.7376 33.9847 40.7593 34.115 38.3639C34.115 38.3639 35.5908 37.7195 34.7761 34.2781L44.3989 29.3706Z" fill="#FDA092"/>
<path id="Vector_48" d="M34.1104 38.588C34.1104 38.5086 34.1104 38.4386 34.1104 38.3639C34.1104 38.3639 35.5861 37.7195 34.7714 34.2781L44.3942 29.3706C44.2564 30.9891 44.3001 32.618 44.5246 34.2268C42.3831 36.2813 37.979 39.8301 34.1057 38.588H34.1104Z" fill="#EF7D78"/>
<path id="Vector_49" d="M35.8562 44.7749C39.3518 42.5287 42.6379 39.9704 45.6745 37.1311C47.3226 37.4626 48.9333 37.8922 50.2648 38.9101C49.4896 42.252 47.8704 45.3378 45.5628 47.8707C42.4111 45.9563 40.2183 45.1344 35.8562 44.7749Z" fill="#E55950"/>
<path id="Vector_50" d="M34.8226 37.4673C34.6263 39.938 34.9809 42.4215 35.8608 44.7375C33.0908 44.8029 29.9251 45.3165 27.197 47.4271C27.8022 43.869 28.4819 41.8612 30.5117 39.0222C31.6756 38.149 33.0768 37.7148 34.8226 37.4673Z" fill="#E55950"/>
<path id="Vector_51" d="M26.8711 12.9154C26.8711 12.9154 30.386 3.54862 32.0293 2.23185C33.817 0.798345 37.4389 -0.369003 39.6456 0.111945C42.3691 0.709628 51.9919 5.20159 52.9369 9.34801C53.7889 13.0835 51.9593 19.5366 51.9593 19.5366L26.8711 12.9154Z" fill="#E6B489"/>
<path id="Vector_52" d="M28.6681 8.44695C32.709 8.27885 43.2582 8.61505 52.8019 15.5584C52.5879 16.8987 52.3036 18.2266 51.9499 19.5368L26.8711 12.9156C26.8711 12.9156 27.6625 10.805 28.6681 8.44695Z" fill="#584344"/>
<path id="Vector_53" d="M29.8367 5.84596C30.6421 4.15097 31.4475 2.69412 32.0201 2.23185C33.8078 0.798345 37.4297 -0.369003 39.6364 0.111945C40.9678 0.406117 43.9566 1.6295 46.7685 3.2918C38.6355 0.574214 32.7277 3.65602 29.8367 5.84596Z" fill="#F4CDA8"/>
<path id="Vector_54" d="M27.0482 23.0062C28.8871 23.6879 29.9299 25.4576 29.3759 26.9565C28.8219 28.4554 26.8806 29.1138 25.037 28.4274C23.1935 27.741 22.1553 25.9759 22.7093 24.477C23.2633 22.9782 25.2046 22.3198 27.0482 23.0062Z" fill="#EF7D78"/>
<path id="Vector_55" d="M38.6169 12.4114C50.7723 15.3764 60.0319 20.284 59.2871 23.3564C58.5422 26.4289 48.0674 26.5129 35.9168 23.5432C23.7661 20.5735 14.4971 15.6519 15.2699 12.5981C16.0427 9.54436 26.4895 9.44163 38.6402 12.4114H38.6169Z" fill="#C68F6A"/>
<path id="Vector_56" d="M37.9326 18.6357C46.7779 20.9237 50.6745 23.1043 51.978 23.9354C52.6671 24.3744 44.9297 24.2156 37.4391 22.1704C29.9485 20.1252 24.0128 17.7625 24.2875 16.9267C24.6134 15.9414 29.4969 16.4597 37.9326 18.6357Z" fill="#A26C47"/>
<path id="Vector_57" d="M29.5247 12.4207L47.5971 17.2768C47.5971 17.2768 48.6678 22.4132 48.2628 24.9673C47.1595 31.9948 39.9436 36.5708 33.8077 36.1972C26.7268 35.777 25.4791 29.8795 26.331 21.4793C26.6185 18.2383 27.717 15.1225 29.5247 12.4207Z" fill="#FDA092"/>
<path id="Vector_58" d="M45.842 26.639C45.842 26.639 42.3039 22.1237 42.1177 18.7944L49.3196 21.1852L49.2079 24.9207L45.8281 26.6577L45.842 26.639Z" fill="#2B2738"/>
<path id="Vector_59" d="M28.1142 16.0207C28.1142 16.0207 26.5639 19.2099 26.0984 24.3229C25.4887 21.5672 25.4887 18.711 26.0984 15.9553L28.1142 16.0207Z" fill="#2B2738"/>
<path id="Vector_60" d="M25.6328 16.3803C25.6328 16.3803 36.5359 16.5297 49.7154 22.7167L49.3337 17.3188L27.8395 11.272L25.6328 16.3803Z" fill="#C68F6A"/>
<path id="Vector_61" d="M47.858 24.0288C49.7806 23.6225 51.5823 24.5611 51.9315 26.1253C52.2806 27.6896 50.9631 29.2818 49.0451 29.6881C47.1271 30.0943 45.3207 29.1511 44.9716 27.5915C44.6224 26.0319 45.9353 24.4303 47.858 24.0288Z" fill="#FDA092"/>
<path id="Vector_62" d="M16.8806 15.5866C15.633 14.4986 15.0184 13.476 15.2466 12.5981C15.9914 9.52568 26.4662 9.44163 38.6169 12.4114C42.2009 13.2705 45.7211 14.3782 49.1521 15.7266C26.7176 9.48833 13.4077 10.581 16.8806 15.5866Z" fill="#CFA581"/>
<path id="Vector_63" d="M29.6411 24.323C29.9419 24.323 30.1858 23.9425 30.1858 23.4731C30.1858 23.0038 29.9419 22.6233 29.6411 22.6233C29.3403 22.6233 29.0964 23.0038 29.0964 23.4731C29.0964 23.9425 29.3403 24.323 29.6411 24.323Z" fill="#30385B"/>
<path id="Vector_64" d="M37.7742 24.323C38.075 24.323 38.3189 23.9425 38.3189 23.4731C38.3189 23.0038 38.075 22.6233 37.7742 22.6233C37.4734 22.6233 37.2295 23.0038 37.2295 23.4731C37.2295 23.9425 37.4734 24.323 37.7742 24.323Z" fill="#30385B"/>
<path id="Vector_65" d="M36.48 20.2091L36.629 18.8082C39.1801 18.6495 40.5256 19.6301 41.1075 21.3297C39.7073 20.5108 38.0985 20.1212 36.48 20.2091Z" fill="#2B2738"/>
<path id="Vector_66" d="M31.1683 20.3212L31.0472 18.9204C28.8452 18.2807 27.4672 19.35 27.0203 21.2551C28.0305 20.2465 29.5249 20.0504 31.1683 20.3212Z" fill="#2B2738"/>
<path id="Vector_67" d="M31.9084 29.6601C34.2385 29.3844 36.5356 28.8776 38.7659 28.1472C38.7659 28.1472 39.2314 32.0368 36.3032 32.7466C32.9187 33.5731 31.9084 29.6601 31.9084 29.6601Z" fill="white"/>
</g>
<defs>
<clipPath id="clip0_1_2104">
<rect width="81" height="187" fill="white"/>
</clipPath>
</defs>
</svg>
